<mxfile host="app.diagrams.net" modified="2023-10-04T16:04:54.714Z" agent="Mozilla/5.0 (Windows NT 10.0; Win64; x64) AppleWebKit/537.36 (KHTML, like Gecko) Chrome/117.0.0.0 Safari/537.36" etag="okICwWeS4g_KjsnWCMbF" version="22.0.2" type="device">
  <diagram name="Page-1" id="_Sf1BFlYsKbFfry3ehEn">
    <mxGraphModel dx="1434" dy="790" grid="1" gridSize="10" guides="1" tooltips="1" connect="1" arrows="1" fold="1" page="1" pageScale="1" pageWidth="850" pageHeight="1100" math="0" shadow="0">
      <root>
        <mxCell id="0" />
        <mxCell id="1" parent="0" />
        <mxCell id="Pt1j5nnDu7qWSuzD9f8I-5" value="Board" style="shape=umlFrame;whiteSpace=wrap;html=1;rounded=0;shadow=0;comic=0;labelBackgroundColor=none;strokeWidth=1;fontFamily=Verdana;fontSize=10;align=center;" parent="1" vertex="1">
          <mxGeometry x="40" y="10" width="820" height="1060" as="geometry" />
        </mxCell>
        <mxCell id="Pt1j5nnDu7qWSuzD9f8I-11" value="Swtich" style="swimlane;html=1;fontStyle=0;childLayout=stackLayout;horizontal=1;startSize=26;fillColor=none;horizontalStack=0;resizeParent=1;resizeLast=0;collapsible=1;marginBottom=0;swimlaneFillColor=#ffffff;rounded=0;shadow=0;comic=0;labelBackgroundColor=none;strokeWidth=1;fontFamily=Verdana;fontSize=10;align=center;" parent="1" vertex="1">
          <mxGeometry x="100" y="430" width="160" height="104" as="geometry" />
        </mxCell>
        <mxCell id="Pt1j5nnDu7qWSuzD9f8I-12" value="- active: int" style="text;html=1;strokeColor=none;fillColor=none;align=left;verticalAlign=top;spacingLeft=4;spacingRight=4;whiteSpace=wrap;overflow=hidden;rotatable=0;points=[[0,0.5],[1,0.5]];portConstraint=eastwest;" parent="Pt1j5nnDu7qWSuzD9f8I-11" vertex="1">
          <mxGeometry y="26" width="160" height="26" as="geometry" />
        </mxCell>
        <mxCell id="Pt1j5nnDu7qWSuzD9f8I-13" value="- address : int" style="text;html=1;strokeColor=none;fillColor=none;align=left;verticalAlign=top;spacingLeft=4;spacingRight=4;whiteSpace=wrap;overflow=hidden;rotatable=0;points=[[0,0.5],[1,0.5]];portConstraint=eastwest;" parent="Pt1j5nnDu7qWSuzD9f8I-11" vertex="1">
          <mxGeometry y="52" width="160" height="26" as="geometry" />
        </mxCell>
        <mxCell id="Pt1j5nnDu7qWSuzD9f8I-15" value="&lt;p style=&quot;margin:0px;margin-top:4px;text-align:center;&quot;&gt;&lt;i&gt;Micro Chip&lt;/i&gt;&lt;/p&gt;&lt;hr size=&quot;1&quot;&gt;&lt;p style=&quot;margin:0px;margin-left:4px;&quot;&gt;-&amp;nbsp;U2TXREG : int&lt;br&gt;&lt;/p&gt;&lt;hr size=&quot;1&quot;&gt;&amp;nbsp;+ putsU2() : char*&lt;br&gt;&lt;br&gt;&amp;nbsp;+&amp;nbsp;putU2() : int&lt;br&gt;&lt;p style=&quot;margin:0px;margin-left:4px;&quot;&gt;&lt;br&gt;&lt;/p&gt;&lt;p style=&quot;margin:0px;margin-left:4px;&quot;&gt;+ Nop()&lt;/p&gt;&lt;p style=&quot;margin:0px;margin-left:4px;&quot;&gt;&lt;br&gt;&lt;/p&gt;&lt;p style=&quot;margin:0px;margin-left:4px;&quot;&gt;+ clearIntrflags () :&lt;/p&gt;&lt;p style=&quot;margin:0px;margin-left:4px;&quot;&gt;&lt;br&gt;&lt;/p&gt;&lt;p style=&quot;margin:0px;margin-left:4px;&quot;&gt;+&amp;nbsp;clearRxFlags (char) :&lt;/p&gt;&lt;p style=&quot;margin:0px;margin-left:4px;&quot;&gt;&lt;br&gt;&lt;/p&gt;&lt;p style=&quot;margin:0px;margin-left:4px;&quot;&gt;+ Delayus () : int&amp;nbsp;&lt;/p&gt;&lt;p style=&quot;margin:0px;margin-left:4px;&quot;&gt;&lt;br&gt;&lt;/p&gt;&lt;p style=&quot;margin:0px;margin-left:4px;&quot;&gt;+ delay_10ms(char) :&amp;nbsp;&lt;/p&gt;" style="verticalAlign=top;align=left;overflow=fill;fontSize=12;fontFamily=Helvetica;html=1;rounded=0;shadow=0;comic=0;labelBackgroundColor=none;strokeWidth=1" parent="1" vertex="1">
          <mxGeometry x="310" y="80" width="290" height="280" as="geometry" />
        </mxCell>
        <mxCell id="Pt1j5nnDu7qWSuzD9f8I-24" value="&lt;p style=&quot;margin:0px;margin-top:4px;text-align:center;&quot;&gt;&lt;i&gt;LED&lt;/i&gt;&lt;/p&gt;&lt;hr size=&quot;1&quot;&gt;&lt;p style=&quot;margin:0px;margin-left:4px;&quot;&gt;- active: int&lt;br&gt;&lt;br&gt;&lt;/p&gt;&lt;hr size=&quot;1&quot;&gt;&lt;font style=&quot;font-size: 11px;&quot;&gt;&amp;nbsp;+ LED_Transmit()&lt;br&gt;&amp;nbsp;+ LED_Receive()&lt;br&gt;&lt;br&gt;&lt;/font&gt;" style="verticalAlign=top;align=left;overflow=fill;fontSize=12;fontFamily=Helvetica;html=1;rounded=0;shadow=0;comic=0;labelBackgroundColor=none;strokeWidth=1;strokeColor=default;" parent="1" vertex="1">
          <mxGeometry x="660" y="520" width="190" height="140" as="geometry" />
        </mxCell>
        <mxCell id="Pt1j5nnDu7qWSuzD9f8I-27" value="&lt;p style=&quot;margin:0px;margin-top:4px;text-align:center;&quot;&gt;&lt;i&gt;Mode&lt;/i&gt;&lt;/p&gt;&lt;hr size=&quot;1&quot;&gt;&lt;p style=&quot;margin:0px;margin-left:4px;&quot;&gt;- mode: define int&lt;br&gt;&lt;/p&gt;&lt;hr size=&quot;1&quot;&gt;&lt;font style=&quot;font-size: 11px;&quot;&gt;&amp;nbsp; + Test_Mode() :&amp;nbsp;&lt;br&gt;&amp;nbsp; +&amp;nbsp;Transmit_Data() :&lt;br&gt;&amp;nbsp; + Receive_Data () :&lt;br&gt;&lt;br&gt;&lt;/font&gt;" style="verticalAlign=top;align=left;overflow=fill;fontSize=12;fontFamily=Helvetica;html=1;rounded=0;shadow=0;comic=0;labelBackgroundColor=none;strokeWidth=1;strokeColor=default;" parent="1" vertex="1">
          <mxGeometry x="360" y="425" width="190" height="140" as="geometry" />
        </mxCell>
        <mxCell id="Pt1j5nnDu7qWSuzD9f8I-35" value="&lt;p style=&quot;margin:0px;margin-top:4px;text-align:center;&quot;&gt;Transmitting&amp;nbsp;&lt;br&gt;&lt;/p&gt;&lt;hr size=&quot;1&quot;&gt;&lt;p style=&quot;margin:0px;margin-left:4px;&quot;&gt;- s [string] : char&lt;br&gt;&lt;/p&gt;&lt;hr size=&quot;1&quot;&gt;&lt;font style=&quot;font-size: 11px;&quot;&gt;&amp;nbsp; +&amp;nbsp;Can_RX_to_UART () :&lt;br&gt;&lt;br&gt;&amp;nbsp; +&amp;nbsp;Sent_RX_to_UART() :&lt;br&gt;&lt;br&gt;&lt;/font&gt;" style="verticalAlign=top;align=left;overflow=fill;fontSize=12;fontFamily=Helvetica;html=1;rounded=0;shadow=0;comic=0;labelBackgroundColor=none;strokeWidth=1;strokeColor=default;" parent="1" vertex="1">
          <mxGeometry x="235" y="620" width="190" height="140" as="geometry" />
        </mxCell>
        <mxCell id="Pt1j5nnDu7qWSuzD9f8I-49" value="&lt;p style=&quot;margin:0px;margin-top:4px;text-align:center;&quot;&gt;&lt;i&gt;CAN&lt;/i&gt;&lt;/p&gt;&lt;hr size=&quot;1&quot;&gt;&lt;p style=&quot;margin:0px;margin-left:4px;&quot;&gt;- CAN Buff Size : int&lt;br&gt;&lt;/p&gt;&lt;hr size=&quot;1&quot;&gt;&amp;nbsp;+ InitCAN () :&lt;br&gt;&lt;br&gt;&amp;nbsp;+&amp;nbsp;CAN_Transmit() :&lt;br&gt;&lt;p style=&quot;margin:0px;margin-left:4px;&quot;&gt;&lt;br&gt;&lt;/p&gt;" style="verticalAlign=top;align=left;overflow=fill;fontSize=12;fontFamily=Helvetica;html=1;rounded=0;shadow=0;comic=0;labelBackgroundColor=none;strokeWidth=1" parent="1" vertex="1">
          <mxGeometry x="410" y="870" width="190" height="110" as="geometry" />
        </mxCell>
        <mxCell id="PrJYqLjy1KI9taj4l3qC-6" value="" style="endArrow=classic;html=1;rounded=0;entryX=0;entryY=0.5;entryDx=0;entryDy=0;exitX=1;exitY=0.5;exitDx=0;exitDy=0;" parent="1" source="Pt1j5nnDu7qWSuzD9f8I-13" target="Pt1j5nnDu7qWSuzD9f8I-27" edge="1">
          <mxGeometry width="50" height="50" relative="1" as="geometry">
            <mxPoint x="450" y="430" as="sourcePoint" />
            <mxPoint x="500" y="380" as="targetPoint" />
          </mxGeometry>
        </mxCell>
        <mxCell id="PrJYqLjy1KI9taj4l3qC-15" value="" style="endArrow=classic;html=1;rounded=0;entryX=0.25;entryY=0;entryDx=0;entryDy=0;exitX=0.5;exitY=1;exitDx=0;exitDy=0;" parent="1" source="Pt1j5nnDu7qWSuzD9f8I-35" target="Pt1j5nnDu7qWSuzD9f8I-49" edge="1">
          <mxGeometry width="50" height="50" relative="1" as="geometry">
            <mxPoint x="450" y="770" as="sourcePoint" />
            <mxPoint x="500" y="720" as="targetPoint" />
          </mxGeometry>
        </mxCell>
        <mxCell id="PrJYqLjy1KI9taj4l3qC-16" value="" style="endArrow=classic;html=1;rounded=0;entryX=0.537;entryY=1;entryDx=0;entryDy=0;entryPerimeter=0;exitX=1;exitY=0.5;exitDx=0;exitDy=0;" parent="1" source="Pt1j5nnDu7qWSuzD9f8I-49" target="Pt1j5nnDu7qWSuzD9f8I-24" edge="1">
          <mxGeometry width="50" height="50" relative="1" as="geometry">
            <mxPoint x="450" y="770" as="sourcePoint" />
            <mxPoint x="500" y="720" as="targetPoint" />
          </mxGeometry>
        </mxCell>
        <mxCell id="PrJYqLjy1KI9taj4l3qC-18" value="" style="endArrow=classic;html=1;rounded=0;exitX=0.731;exitY=1.002;exitDx=0;exitDy=0;exitPerimeter=0;entryX=0.25;entryY=0;entryDx=0;entryDy=0;" parent="1" source="Pt1j5nnDu7qWSuzD9f8I-15" target="Pt1j5nnDu7qWSuzD9f8I-24" edge="1">
          <mxGeometry width="50" height="50" relative="1" as="geometry">
            <mxPoint x="500" y="360" as="sourcePoint" />
            <mxPoint x="506.56249999999955" y="150" as="targetPoint" />
          </mxGeometry>
        </mxCell>
        <mxCell id="PrJYqLjy1KI9taj4l3qC-23" value="&lt;span style=&quot;font-weight: 400;&quot;&gt;Receive&lt;/span&gt;" style="swimlane;fontStyle=1;align=center;verticalAlign=top;childLayout=stackLayout;horizontal=1;startSize=26;horizontalStack=0;resizeParent=1;resizeParentMax=0;resizeLast=0;collapsible=1;marginBottom=0;whiteSpace=wrap;html=1;" parent="1" vertex="1">
          <mxGeometry x="450" y="630" width="170" height="130" as="geometry" />
        </mxCell>
        <mxCell id="PrJYqLjy1KI9taj4l3qC-24" value="+ can_rx(): int&lt;br&gt;" style="text;strokeColor=none;fillColor=none;align=left;verticalAlign=top;spacingLeft=4;spacingRight=4;overflow=hidden;rotatable=0;points=[[0,0.5],[1,0.5]];portConstraint=eastwest;whiteSpace=wrap;html=1;" parent="PrJYqLjy1KI9taj4l3qC-23" vertex="1">
          <mxGeometry y="26" width="170" height="44" as="geometry" />
        </mxCell>
        <mxCell id="PrJYqLjy1KI9taj4l3qC-25" value="" style="line;strokeWidth=1;fillColor=none;align=left;verticalAlign=middle;spacingTop=-1;spacingLeft=3;spacingRight=3;rotatable=0;labelPosition=right;points=[];portConstraint=eastwest;strokeColor=inherit;" parent="PrJYqLjy1KI9taj4l3qC-23" vertex="1">
          <mxGeometry y="70" width="170" height="8" as="geometry" />
        </mxCell>
        <mxCell id="PrJYqLjy1KI9taj4l3qC-26" value="+ Can_RX_to_UART():&lt;br style=&quot;border-color: var(--border-color);&quot;&gt;&lt;br style=&quot;border-color: var(--border-color);&quot;&gt;" style="text;strokeColor=none;fillColor=none;align=left;verticalAlign=top;spacingLeft=4;spacingRight=4;overflow=hidden;rotatable=0;points=[[0,0.5],[1,0.5]];portConstraint=eastwest;whiteSpace=wrap;html=1;" parent="PrJYqLjy1KI9taj4l3qC-23" vertex="1">
          <mxGeometry y="78" width="170" height="52" as="geometry" />
        </mxCell>
        <mxCell id="PrJYqLjy1KI9taj4l3qC-27" value="" style="endArrow=classic;startArrow=classic;html=1;rounded=0;entryX=0.5;entryY=1;entryDx=0;entryDy=0;exitX=0.5;exitY=0;exitDx=0;exitDy=0;" parent="1" source="Pt1j5nnDu7qWSuzD9f8I-27" target="Pt1j5nnDu7qWSuzD9f8I-15" edge="1">
          <mxGeometry width="50" height="50" relative="1" as="geometry">
            <mxPoint x="520" y="390" as="sourcePoint" />
            <mxPoint x="570" y="340" as="targetPoint" />
          </mxGeometry>
        </mxCell>
        <mxCell id="PrJYqLjy1KI9taj4l3qC-29" value="" style="endArrow=classic;html=1;rounded=0;entryX=0.647;entryY=0.981;entryDx=0;entryDy=0;entryPerimeter=0;exitX=0.5;exitY=0;exitDx=0;exitDy=0;" parent="1" source="Pt1j5nnDu7qWSuzD9f8I-49" target="PrJYqLjy1KI9taj4l3qC-26" edge="1">
          <mxGeometry width="50" height="50" relative="1" as="geometry">
            <mxPoint x="520" y="810" as="sourcePoint" />
            <mxPoint x="570" y="760" as="targetPoint" />
          </mxGeometry>
        </mxCell>
        <mxCell id="PrJYqLjy1KI9taj4l3qC-35" value="Error" style="swimlane;fontStyle=1;align=center;verticalAlign=top;childLayout=stackLayout;horizontal=1;startSize=26;horizontalStack=0;resizeParent=1;resizeParentMax=0;resizeLast=0;collapsible=1;marginBottom=0;whiteSpace=wrap;html=1;" parent="1" vertex="1">
          <mxGeometry x="650" y="160" width="180" height="140" as="geometry" />
        </mxCell>
        <mxCell id="PrJYqLjy1KI9taj4l3qC-38" value="&amp;nbsp;- _MathError():&lt;br&gt;&lt;br&gt;&amp;nbsp;- _StackError():&lt;br&gt;&lt;br&gt;&amp;nbsp;- _AddressError():&lt;br style=&quot;border-color: var(--border-color);&quot;&gt;&lt;br style=&quot;border-color: var(--border-color);&quot;&gt;&amp;nbsp;- _OscillatorFail():" style="text;strokeColor=none;fillColor=none;align=left;verticalAlign=top;spacingLeft=4;spacingRight=4;overflow=hidden;rotatable=0;points=[[0,0.5],[1,0.5]];portConstraint=eastwest;whiteSpace=wrap;html=1;" parent="PrJYqLjy1KI9taj4l3qC-35" vertex="1">
          <mxGeometry y="26" width="180" height="114" as="geometry" />
        </mxCell>
        <mxCell id="PrJYqLjy1KI9taj4l3qC-39" value="" style="endArrow=classic;html=1;rounded=0;entryX=0;entryY=0.5;entryDx=0;entryDy=0;exitX=1;exitY=0.581;exitDx=0;exitDy=0;exitPerimeter=0;" parent="1" source="Pt1j5nnDu7qWSuzD9f8I-15" target="PrJYqLjy1KI9taj4l3qC-38" edge="1">
          <mxGeometry width="50" height="50" relative="1" as="geometry">
            <mxPoint x="520" y="390" as="sourcePoint" />
            <mxPoint x="570" y="340" as="targetPoint" />
          </mxGeometry>
        </mxCell>
        <mxCell id="PrJYqLjy1KI9taj4l3qC-40" value="" style="endArrow=classic;html=1;rounded=0;entryX=0.5;entryY=0;entryDx=0;entryDy=0;exitX=0.576;exitY=1.005;exitDx=0;exitDy=0;exitPerimeter=0;" parent="1" source="PrJYqLjy1KI9taj4l3qC-38" target="Pt1j5nnDu7qWSuzD9f8I-24" edge="1">
          <mxGeometry width="50" height="50" relative="1" as="geometry">
            <mxPoint x="520" y="390" as="sourcePoint" />
            <mxPoint x="570" y="340" as="targetPoint" />
          </mxGeometry>
        </mxCell>
        <mxCell id="6fPFQtzWIFoOEf_rUTW1-1" value="" style="endArrow=block;endFill=0;endSize=12;html=1;rounded=0;entryX=0.25;entryY=1;entryDx=0;entryDy=0;exitX=0.5;exitY=0;exitDx=0;exitDy=0;" edge="1" parent="1" source="Pt1j5nnDu7qWSuzD9f8I-35" target="Pt1j5nnDu7qWSuzD9f8I-27">
          <mxGeometry width="160" relative="1" as="geometry">
            <mxPoint x="650" y="410" as="sourcePoint" />
            <mxPoint x="810" y="410" as="targetPoint" />
          </mxGeometry>
        </mxCell>
        <mxCell id="6fPFQtzWIFoOEf_rUTW1-2" value="" style="endArrow=block;endFill=0;endSize=12;html=1;rounded=0;entryX=0.75;entryY=1;entryDx=0;entryDy=0;exitX=0.5;exitY=0;exitDx=0;exitDy=0;" edge="1" parent="1" source="PrJYqLjy1KI9taj4l3qC-23" target="Pt1j5nnDu7qWSuzD9f8I-27">
          <mxGeometry width="160" relative="1" as="geometry">
            <mxPoint x="345" y="640" as="sourcePoint" />
            <mxPoint x="418" y="580" as="targetPoint" />
          </mxGeometry>
        </mxCell>
      </root>
    </mxGraphModel>
  </diagram>
</mxfile>
